<svg width="36" height="36" viewBox="0 0 36 36" fill="none" xmlns="http://www.w3.org/2000/svg">
<g filter="url(#filter0_d_0_446)">
<rect x="4" width="28" height="28" rx="14" fill="#CFFAFE"/>
<path d="M10.8356 20.6107H20.764" stroke="#155E75" stroke-width="0.791667" stroke-linecap="round" stroke-linejoin="round"/>
<path d="M10.3464 15.4011L12.9457 17.8356C13.2923 18.1606 13.7345 18.365 14.2066 18.4184C14.6786 18.4719 15.1553 18.3715 15.5657 18.1322L26.0044 12.0632L24.722 10.4907C24.3884 10.0832 23.9201 9.80845 23.4016 9.71612C22.8832 9.62379 22.3489 9.71998 21.8951 9.9873L18.8339 11.7873L14.697 10.408L13.5593 10.8976C13.4742 10.9341 13.3997 10.9915 13.3425 11.0644C13.2854 11.1372 13.2475 11.2233 13.2324 11.3147C13.2173 11.4061 13.2255 11.4998 13.2561 11.5872C13.2867 11.6746 13.3388 11.7529 13.4077 11.8149L15.5244 13.7184L13.5938 14.8218L11.6633 13.9942L10.505 14.4908C10.4207 14.527 10.3468 14.5836 10.2899 14.6556C10.233 14.7276 10.195 14.8126 10.1793 14.903C10.1635 14.9934 10.1706 15.0863 10.1997 15.1732C10.2289 15.2602 10.2793 15.3385 10.3464 15.4011Z" stroke="#155E75" stroke-width="0.791667" stroke-linecap="round" stroke-linejoin="round"/>
</g>
<defs>
<filter id="filter0_d_0_446" x="0" y="0" width="36" height="36" filterUnits="userSpaceOnUse" color-interpolation-filters="sRGB">
<feFlood flood-opacity="0" result="BackgroundImageFix"/>
<feColorMatrix in="SourceAlpha" type="matrix" values="0 0 0 0 0 0 0 0 0 0 0 0 0 0 0 0 0 0 127 0" result="hardAlpha"/>
<feMorphology radius="2" operator="erode" in="SourceAlpha" result="effect1_dropShadow_0_446"/>
<feOffset dy="4"/>
<feGaussianBlur stdDeviation="3"/>
<feColorMatrix type="matrix" values="0 0 0 0 0 0 0 0 0 0 0 0 0 0 0 0 0 0 0.05 0"/>
<feBlend mode="normal" in2="BackgroundImageFix" result="effect1_dropShadow_0_446"/>
<feBlend mode="normal" in="SourceGraphic" in2="effect1_dropShadow_0_446" result="shape"/>
</filter>
</defs>
</svg>
