<svg width="135" height="32" viewBox="0 0 135 32" fill="none" xmlns="http://www.w3.org/2000/svg">
<rect width="134.4" height="32" fill="white"/>
<path d="M19.1157 2.4464V13.809L12.8844 13.809C12.8844 13.809 12.8844 13.1656 12.8844 10.6918C12.8844 8.21805 11.7936 7.72622 9.92626 7.49325C8.05892 7.26028 7.73417 7.86546 7.71097 7.89982C7.68777 7.93418 7.56019 8.08306 7.56019 8.54117C7.56019 8.99927 7.76641 9.37721 7.76641 10.6485C7.76641 11.9197 7.76641 27.5558 7.76641 27.5558L3.91097 25.3265C3.82942 25.2788 3.75575 25.2312 3.68077 25.1835C3.68077 25.1835 3.6742 25.1835 3.6742 25.1769C3.63342 25.1504 3.59264 25.1226 3.55187 25.0961C3.51109 25.0683 3.47031 25.0419 3.43611 25.0074C3.39665 24.9796 3.36245 24.9465 3.32167 24.9187C3.28089 24.8923 3.24669 24.8578 3.21249 24.8234C3.17961 24.7903 3.13883 24.7625 3.10463 24.7281C3.07043 24.695 3.04412 24.6672 3.00992 24.6341L2.99677 24.6195C2.96257 24.5865 2.92837 24.552 2.90206 24.5176C2.86786 24.4845 2.83366 24.4501 2.80603 24.4157C2.77315 24.3826 2.74553 24.3482 2.71132 24.3071C2.68502 24.2806 2.66397 24.2528 2.63766 24.2197C2.62319 24.2052 2.61004 24.1853 2.60346 24.1721C2.58242 24.1509 2.56926 24.1244 2.54953 24.1032C2.54295 24.0966 2.53506 24.0834 2.52848 24.0768C2.50875 24.0424 2.48113 24.0159 2.4614 23.9815C2.45482 23.9748 2.44693 23.9603 2.44035 23.9537C2.42062 23.9206 2.39958 23.8928 2.37984 23.8583C2.37984 23.8517 2.37327 23.8517 2.37327 23.8451C2.35222 23.812 2.32591 23.771 2.30487 23.7365C2.30487 23.7365 2.29829 23.7299 2.29829 23.7233C2.27856 23.6823 2.25094 23.6478 2.2312 23.6081C2.2312 23.6081 2.2312 23.6081 2.2312 23.6002C2.21016 23.5605 2.18385 23.5194 2.1628 23.4784C2.14307 23.444 2.1286 23.4043 2.10887 23.3698C2.10229 23.3566 2.09572 23.342 2.08783 23.3288C2.07467 23.2944 2.05494 23.2613 2.04047 23.2202C2.02074 23.1792 2.00759 23.1382 1.98654 23.0984C1.98654 23.0905 1.97996 23.0839 1.97996 23.0773C1.96681 23.0362 1.94576 22.9965 1.93261 22.9555C1.91945 22.9144 1.90498 22.8734 1.89183 22.8324C1.88525 22.8191 1.88525 22.8059 1.87868 22.7926C1.86421 22.7582 1.85763 22.7172 1.84448 22.6828V22.6761C1.83132 22.6364 1.82475 22.5954 1.81028 22.5477C1.81028 22.5411 1.8037 22.5345 1.8037 22.5265C1.79712 22.4868 1.78397 22.4524 1.77608 22.4114C1.77608 22.4047 1.7695 22.3981 1.7695 22.3849C1.76292 22.3505 1.75634 22.3094 1.74977 22.275C1.74319 22.2287 1.72872 22.1876 1.72214 22.14C1.71557 22.0923 1.70899 22.0447 1.70241 22.0036C1.69584 21.956 1.68926 21.9083 1.68926 21.8606C1.67479 21.7111 1.66821 21.5628 1.66821 21.4052V10.2002C1.66821 8.99019 2.14965 7.84241 2.9823 7.00706C3.0849 6.90512 3.19276 6.80319 3.30852 6.70787C3.38218 6.64697 3.46373 6.58475 3.54529 6.52385C3.66762 6.43516 3.78864 6.3544 3.92412 6.27894L13.5871 0.680384C14.9827 -0.128487 16.7032 -0.128487 18.0989 0.680384C18.1055 0.687004 18.112 0.693623 18.1265 0.693623C18.2962 0.795559 18.4448 0.917353 18.5737 1.05371C18.675 1.16888 18.7697 1.292 18.8447 1.42042C19.021 1.73284 19.1157 2.08631 19.1157 2.4464Z" fill="#04CEDB"/>
<path d="M12.8844 29.5548L12.8844 18.1922L19.1157 18.1922C19.1157 18.1922 19.1157 18.8356 19.1157 21.3094C19.1157 23.7832 20.2065 24.275 22.0739 24.508C23.9412 24.7409 24.266 24.1358 24.2892 24.1014C24.3123 24.067 24.4399 23.9182 24.4399 23.4601C24.4399 23.0019 24.2337 22.624 24.2337 21.3528C24.2337 20.0815 24.2337 4.44538 24.2337 4.44538L28.0891 6.67474C28.1707 6.7224 28.2444 6.77006 28.3193 6.81771C28.3193 6.81771 28.3259 6.81771 28.3259 6.82433C28.3667 6.85081 28.4075 6.87861 28.4483 6.90509C28.489 6.93289 28.5298 6.95936 28.564 6.99378C28.6035 7.02158 28.6377 7.05468 28.6784 7.08248C28.7192 7.10896 28.7534 7.14338 28.7876 7.1778C28.8205 7.2109 28.8613 7.2387 28.8955 7.27312C28.9297 7.30622 28.956 7.33401 28.9902 7.36711L29.0034 7.38167C29.0376 7.41477 29.0718 7.44919 29.0981 7.48361C29.1323 7.51671 29.1665 7.55113 29.1941 7.58555C29.227 7.61864 29.2546 7.65306 29.2888 7.6941C29.3151 7.72058 29.3361 7.74838 29.3625 7.78147C29.3769 7.79604 29.3901 7.8159 29.3967 7.82913C29.4177 7.85032 29.4309 7.87679 29.4506 7.89797C29.4572 7.90459 29.4651 7.91783 29.4716 7.92445C29.4914 7.95887 29.519 7.98535 29.5387 8.01977C29.5453 8.02639 29.5532 8.04095 29.5598 8.04757C29.5795 8.08066 29.6005 8.10847 29.6203 8.14289C29.6203 8.14951 29.6269 8.14951 29.6269 8.15613C29.6479 8.18922 29.6742 8.23026 29.6953 8.26468C29.6953 8.26468 29.7018 8.2713 29.7018 8.27792C29.7216 8.31896 29.7492 8.35338 29.7689 8.39309C29.7689 8.39309 29.7689 8.39309 29.7689 8.40104C29.79 8.44075 29.8163 8.48179 29.8373 8.52283C29.857 8.55725 29.8715 8.59697 29.8912 8.63139C29.8978 8.64462 29.9044 8.65919 29.9123 8.67243C29.9254 8.70685 29.9452 8.73994 29.9596 8.78098C29.9794 8.82202 29.9925 8.86306 30.0136 8.90277C30.0136 8.91072 30.0202 8.91734 30.0202 8.92396C30.0333 8.965 30.0544 9.00471 30.0675 9.04575C30.0807 9.08679 30.0951 9.12783 30.1083 9.16887C30.1149 9.18211 30.1149 9.19534 30.1214 9.20858C30.1359 9.243 30.1425 9.28404 30.1556 9.31846L30.1556 9.32508C30.1688 9.3648 30.1754 9.40584 30.1898 9.4535C30.1898 9.46012 30.1964 9.46674 30.1964 9.47468C30.203 9.51439 30.2162 9.54881 30.224 9.58985C30.224 9.59647 30.2306 9.60309 30.2306 9.61633C30.2372 9.65075 30.2438 9.69179 30.2504 9.72621C30.2569 9.77254 30.2714 9.81358 30.278 9.86124C30.2846 9.9089 30.2911 9.95656 30.2977 9.9976C30.3043 10.0453 30.3109 10.0929 30.3109 10.1406C30.3253 10.2902 30.3319 10.4384 30.3319 10.596L30.3319 21.801C30.3319 23.011 29.8505 24.1588 29.0178 24.9942C28.9152 25.0961 28.8074 25.198 28.6916 25.2934C28.6179 25.3542 28.5364 25.4165 28.4548 25.4774C28.3325 25.5661 28.2115 25.6468 28.076 25.7223L18.4131 31.3208C17.0174 32.1297 15.2969 32.1297 13.9012 31.3208C13.8947 31.3142 13.8881 31.3076 13.8736 31.3076C13.7039 31.2057 13.5553 31.0839 13.4264 30.9475C13.3251 30.8323 13.2304 30.7092 13.1554 30.5808C12.9792 30.2684 12.8844 29.9149 12.8844 29.5548Z" fill="#04CEDB"/>
<path d="M49.0675 10.1765C49.0675 9.37036 48.7222 8.88637 48.2042 8.60018C47.6862 8.31548 46.9837 8.22858 46.2931 8.22858C45.7885 8.22858 45.4685 8.31548 45.2825 8.45184C45.0979 8.60018 45.0369 8.79947 45.0369 9.03471C45.0369 9.234 45.0607 9.44527 45.1098 9.65505C45.1604 9.87831 45.1842 10.1031 45.1961 10.3128V14.5818H39.2306V10.1765C39.2306 9.39433 38.9106 8.91035 38.4045 8.61366C37.8984 8.32747 37.1959 8.22858 36.4443 8.22858C35.9397 8.22858 35.6316 8.31548 35.4455 8.45184C35.2491 8.60018 35.2 8.79947 35.2 9.03471C35.2 9.234 35.2238 9.44527 35.2863 9.65505C35.3354 9.87831 35.3592 10.1031 35.3726 10.3128V22.363C35.3726 22.9099 35.5691 23.4058 35.9144 23.7535C36.2597 24.1131 36.7286 24.3483 37.3075 24.3483C37.8627 24.3483 38.3435 24.1131 38.6873 23.7535C39.0326 23.4058 39.2306 22.9099 39.2306 22.363V18.4671H45.1961V22.363C45.1961 22.9099 45.406 23.4058 45.7513 23.7535C46.0966 24.1131 46.5774 24.3483 47.1326 24.3483C47.6743 24.3483 48.167 24.1251 48.5123 23.7655C48.8576 23.4178 49.0675 22.9099 49.0675 22.363V10.1765Z" fill="#04CEDB"/>
<path d="M51.2104 18.1577C51.2104 19.8569 51.9011 21.4077 53.0233 22.5255C54.1441 23.6418 55.6861 24.3491 57.3621 24.3491C59.0514 24.3491 60.6038 23.6418 61.7127 22.5255C62.823 21.4077 63.5137 19.8569 63.5137 18.1577C63.5137 16.469 62.823 14.9062 61.7127 13.7884C60.6038 12.6721 59.0514 11.9768 57.3621 11.9768C55.6861 11.9768 54.1441 12.6721 53.0233 13.7884C51.9011 14.9062 51.2104 16.469 51.2104 18.1577ZM55.0937 18.1577C55.0937 17.5119 55.3408 16.9155 55.7471 16.481C56.1535 16.048 56.7206 15.7737 57.3621 15.7737C58.0036 15.7737 58.5706 16.048 58.977 16.481C59.3833 16.9155 59.6304 17.5119 59.6304 18.1577C59.6304 18.802 59.3833 19.4104 58.977 19.8449C58.5706 20.2914 58.0036 20.5641 57.3621 20.5641C56.7206 20.5641 56.1535 20.2914 55.7471 19.8449C55.3408 19.4104 55.0937 18.802 55.0937 18.1577Z" fill="#04CEDB"/>
<path d="M65.6068 22.4019C65.6068 22.9473 65.8167 23.4313 66.162 23.7789C66.5073 24.1385 67 24.3498 67.5432 24.3498C68.0731 24.3498 68.5539 24.1385 68.9111 23.7789C69.2564 23.4313 69.4782 22.9473 69.4782 22.4019V10.0536C69.4782 9.50815 69.2564 9.02417 68.9111 8.67654C68.5539 8.32891 68.0731 8.10565 67.5432 8.10565C67 8.10565 66.5073 8.32891 66.162 8.67654C65.8167 9.02417 65.6068 9.50815 65.6068 10.0536V22.4019Z" fill="#04CEDB"/>
<path d="M72.0413 8.663C72.0413 9.2219 72.263 9.71787 72.6203 10.0655C72.9656 10.4131 73.4716 10.6229 74.0268 10.6229C74.5686 10.6229 75.0746 10.4131 75.4319 10.0655C75.7891 9.71787 76.0109 9.2219 76.0109 8.663C76.0109 8.11609 75.7891 7.62012 75.4319 7.2605C75.0746 6.91287 74.5686 6.7016 74.0268 6.7016C73.4716 6.7016 72.9656 6.91287 72.6203 7.2605C72.263 7.62012 72.0413 8.11609 72.0413 8.663ZM72.1395 22.4003C72.1395 22.9457 72.3494 23.4297 72.6947 23.7773C73.04 24.1369 73.5207 24.3482 74.0625 24.3482C74.6058 24.3482 75.0866 24.1369 75.4319 23.7773C75.7772 23.4297 75.9989 22.9457 75.9989 22.4003V13.8999C75.9989 13.353 75.7772 12.869 75.4319 12.5229C75.0866 12.1752 74.6058 11.952 74.0625 11.952C73.5207 11.952 73.04 12.1752 72.6947 12.5229C72.3494 12.869 72.1395 13.353 72.1395 13.8999V22.4003Z" fill="#04CEDB"/>
<path d="M89.829 8.59958C89.4837 8.25345 88.991 8.04218 88.4477 8.04218C87.9178 8.04218 87.4371 8.25345 87.0918 8.59958C86.7346 8.96069 86.5128 9.44468 86.5128 9.99009V12.9314C85.6867 12.3231 84.7624 11.9755 83.85 11.9755C82.1622 11.9755 80.7199 12.6707 79.6959 13.8005C78.6733 14.9288 78.0809 16.4677 78.0809 18.1683C78.0809 19.8675 78.6733 21.4199 79.6959 22.5362C80.7199 23.6525 82.1622 24.3612 83.85 24.3612C85.4649 24.3612 86.7599 23.7154 87.6589 22.6725L87.7705 22.9452C88.0667 23.8772 88.5832 24.3612 89.3229 24.3612C90.0254 24.3612 90.3841 23.9881 90.3841 23.2929V9.99009C90.3841 9.44468 90.1743 8.96069 89.829 8.59958ZM84.2325 20.5763C83.591 20.5763 83.0239 20.3021 82.6176 19.8555C82.2113 19.421 81.9642 18.8127 81.9642 18.1683C81.9642 17.5225 82.2113 16.9142 82.6176 16.4797C83.0239 16.0466 83.591 15.7724 84.2325 15.7724C84.874 15.7724 85.453 16.0466 85.8594 16.4797C86.2538 16.9142 86.5128 17.5225 86.5128 18.1683C86.5128 18.8127 86.2538 19.421 85.8594 19.8555C85.453 20.3021 84.874 20.5763 84.2325 20.5763Z" fill="#04CEDB"/>
<path d="M103.929 11.9636C103.19 11.9636 102.672 12.4475 102.377 13.378L102.364 13.4155C101.514 12.509 100.318 11.9755 98.839 11.9755C97.1615 11.9755 95.621 12.6708 94.4988 13.8006C93.378 14.9289 92.6874 16.4677 92.6874 18.1684C92.6874 19.8676 93.378 21.4199 94.4988 22.5363C95.621 23.6526 97.1615 24.3613 98.839 24.3613C100.293 24.3613 101.465 23.8399 102.303 22.9828L102.377 23.1686C102.672 23.8773 103.14 24.3613 103.88 24.3613C104.62 24.3613 104.989 23.9507 104.989 23.206V13.0304C104.989 12.3232 104.632 11.9636 103.929 11.9636ZM100.454 19.8556C100.046 20.3021 99.479 20.5763 98.839 20.5763C98.1975 20.5763 97.6304 20.3021 97.2241 19.8556C96.8177 19.4211 96.5706 18.8127 96.5706 18.1684C96.5706 17.5226 96.8177 16.9143 97.2241 16.4797C97.6304 16.0467 98.1975 15.7725 98.839 15.7725C99.479 15.7725 100.046 16.0467 100.454 16.4797C100.86 16.9143 101.107 17.5226 101.107 18.1684C101.107 18.8127 100.86 19.4211 100.454 19.8556Z" fill="#04CEDB"/>
<path d="M110.547 24.1128C110.325 24.2372 110.055 24.3241 109.746 24.3735C109.438 24.435 109.13 24.5099 108.847 24.6088C108.255 24.8201 107.786 25.1677 107.786 25.9993C107.786 27.1785 108.612 27.9217 109.931 27.9217C111.805 27.8858 113.322 27.0407 114.049 25.4524L118.943 14.7313C119.287 13.9866 119.214 13.3903 118.979 12.9438C118.745 12.4972 118.376 12.2245 118.117 12.0882C117.586 11.8394 117.056 11.814 116.589 11.9758C116.12 12.1376 115.714 12.4972 115.504 12.9812C115.405 13.1925 115.17 13.8368 114.801 14.9052C114.431 15.972 113.877 17.4734 113.149 19.4213L110.82 13.0561C110.622 12.5092 110.215 12.1496 109.735 11.9878C109.242 11.8274 108.675 11.8514 108.181 12.0882C107.688 12.3234 107.355 12.7085 107.207 13.179C107.06 13.651 107.072 14.2219 107.305 14.7313C108.008 16.2327 108.65 17.5723 109.217 18.7515C109.697 19.757 110.178 20.7744 110.547 21.5311L110.992 22.4616C111.102 22.6983 111.152 22.8227 111.165 22.8347L110.547 24.1128Z" fill="#04CEDB"/>
<path d="M120.383 18.1577C120.383 19.8569 121.074 21.4077 122.196 22.5255C123.317 23.6418 124.859 24.3491 126.535 24.3491C128.224 24.3491 129.777 23.6418 130.886 22.5255C131.996 21.4077 132.687 19.8569 132.687 18.1577C132.687 16.469 131.996 14.9062 130.886 13.7884C129.777 12.6721 128.224 11.9768 126.535 11.9768C124.859 11.9768 123.317 12.6721 122.196 13.7884C121.074 14.9062 120.383 16.469 120.383 18.1577ZM124.267 18.1577C124.267 17.5119 124.514 16.9155 124.92 16.481C125.326 16.048 125.894 15.7737 126.535 15.7737C127.177 15.7737 127.744 16.048 128.15 16.481C128.556 16.9155 128.803 17.5119 128.803 18.1577C128.803 18.802 128.556 19.4104 128.15 19.8449C127.744 20.2914 127.177 20.5641 126.535 20.5641C125.894 20.5641 125.326 20.2914 124.92 19.8449C124.514 19.4104 124.267 18.802 124.267 18.1577Z" fill="#04CEDB"/>
</svg>
