<svg width="24" height="25" viewBox="0 0 24 25" fill="none" xmlns="http://www.w3.org/2000/svg">
<g id="icon-stay">
<path id="Group" d="M7.49427 12.9588C8.06589 12.9588 8.62469 12.798 9.09998 12.4966C9.57527 12.1952 9.94571 11.7668 10.1645 11.2656C10.3832 10.7644 10.4405 10.2129 10.3289 9.68086C10.2174 9.14879 9.94215 8.66006 9.53795 8.27647C9.13375 7.89287 8.61876 7.63164 8.05812 7.52581C7.49747 7.41997 6.91635 7.47429 6.38824 7.68189C5.86012 7.88949 5.40873 8.24105 5.09115 8.69211C4.77357 9.14317 4.60407 9.67347 4.60407 10.216C4.60407 10.9434 4.90857 11.6411 5.45059 12.1555C5.9926 12.6698 6.72774 12.9588 7.49427 12.9588ZM7.49427 9.30167C7.68481 9.30167 7.87107 9.3553 8.0295 9.45576C8.18793 9.55622 8.31142 9.69901 8.38433 9.86608C8.45725 10.0331 8.47633 10.217 8.43916 10.3943C8.40198 10.5717 8.31023 10.7346 8.17549 10.8625C8.04076 10.9903 7.8691 11.0774 7.68222 11.1127C7.49534 11.148 7.30163 11.1299 7.12559 11.0607C6.94955 10.9914 6.79909 10.8743 6.69323 10.7239C6.58737 10.5736 6.53087 10.3968 6.53087 10.216C6.53087 9.97348 6.63237 9.74092 6.81304 9.56946C6.99371 9.398 7.23876 9.30167 7.49427 9.30167ZM20.0185 7.4731H12.3113C12.0558 7.4731 11.8107 7.56943 11.63 7.74089C11.4494 7.91235 11.3479 8.1449 11.3479 8.38739V13.8731H3.64067V6.55882C3.64067 6.31633 3.53917 6.08378 3.35849 5.91232C3.17782 5.74086 2.93278 5.64453 2.67727 5.64453C2.42176 5.64453 2.17671 5.74086 1.99604 5.91232C1.81537 6.08378 1.71387 6.31633 1.71387 6.55882V18.4445C1.71387 18.687 1.81537 18.9196 1.99604 19.091C2.17671 19.2625 2.42176 19.3588 2.67727 19.3588C2.93278 19.3588 3.17782 19.2625 3.35849 19.091C3.53917 18.9196 3.64067 18.687 3.64067 18.4445V15.7017H20.9819V18.4445C20.9819 18.687 21.0834 18.9196 21.264 19.091C21.4447 19.2625 21.6898 19.3588 21.9453 19.3588C22.2008 19.3588 22.4458 19.2625 22.6265 19.091C22.8072 18.9196 22.9087 18.687 22.9087 18.4445V10.216C22.9087 9.48851 22.6042 8.79085 22.0621 8.27647C21.5201 7.76208 20.785 7.4731 20.0185 7.4731ZM20.9819 13.8731H13.2747V9.30167H20.0185C20.274 9.30167 20.519 9.398 20.6997 9.56946C20.8804 9.74092 20.9819 9.97348 20.9819 10.216V13.8731Z" fill="#D1D5DB"/>
</g>
</svg>
