<svg width="34" height="34" viewBox="0 0 34 34" fill="none" xmlns="http://www.w3.org/2000/svg">
<path d="M26.9553 2.31315H26.8255C22.5438 2.31315 19.0607 5.52344 19.0607 9.46964V18.1042C19.0607 19.4278 20.2291 20.5048 21.6653 20.5048H22.2035V28.9626C22.2035 29.5107 22.6851 29.9546 23.2798 29.9546H26.9553C27.55 29.9546 28.0316 29.5107 28.0316 28.9626V3.30513C28.0316 2.75706 27.55 2.31315 26.9553 2.31315ZM25.879 27.9706H24.3561V19.5128C24.3561 18.9647 23.8744 18.5208 23.2798 18.5208H21.6653C21.4157 18.5208 21.2133 18.3336 21.2133 18.1042V9.46964C21.2133 6.91468 23.2333 4.78627 25.879 4.37088V27.9706Z" fill="#04CEDB"/>
<path d="M14.7496 2.31315C14.1549 2.31315 13.6733 2.75706 13.6733 3.30513V10.4474H11.4857V3.30513C11.4857 2.75706 11.004 2.31315 10.4094 2.31315C9.81473 2.31315 9.33309 2.75706 9.33309 3.30513V10.4474H7.14552V3.30513C7.14552 2.75706 6.66387 2.31315 6.06922 2.31315C5.47456 2.31315 4.99292 2.75706 4.99292 3.30513V11.4393V13.3706C4.99292 15.0576 5.95015 16.5747 7.48791 17.4104L6.78697 27.0772C6.72038 27.9979 7.07421 28.9124 7.75833 29.5863C8.44245 30.2602 9.40843 30.6465 10.4101 30.6465C11.411 30.6465 12.3777 30.2602 13.0618 29.5863C13.7459 28.9124 14.0997 27.9979 14.0332 27.0772L13.3322 17.411C14.87 16.5753 15.8272 15.0582 15.8272 13.3712V11.4393V3.30513C15.8259 2.75706 15.3435 2.31315 14.7496 2.31315ZM13.6733 13.3706C13.6733 14.4903 12.9427 15.4804 11.8126 15.8927C11.3774 16.0514 11.1036 16.4507 11.1352 16.8809L11.8846 27.2087C11.9122 27.5887 11.7716 27.9514 11.4891 28.2298C11.2065 28.5082 10.8231 28.6613 10.4094 28.6613C9.99569 28.6613 9.61226 28.5082 9.32973 28.2298C9.0472 27.9514 8.90661 27.5887 8.93419 27.208L9.68356 16.8803C9.7145 16.4501 9.44072 16.0508 9.00617 15.8921C7.87605 15.4798 7.14552 14.4897 7.14552 13.37V12.4313H13.6733V13.3706Z" fill="#04CEDB"/>
</svg>
