<svg width="23" height="21" viewBox="0 0 23 21" fill="none" xmlns="http://www.w3.org/2000/svg">
<g id="icon-users">
<path id="Group" d="M12 4.85418C12.7329 4.02375 13.8053 3.5 15 3.5C17.2091 3.5 19 5.29086 19 7.5C19 9.70914 17.2091 11.5 15 11.5C13.8053 11.5 12.7329 10.9762 12 10.1458M15 21.5H3V20.5C3 17.1863 5.68629 14.5 9 14.5C12.3137 14.5 15 17.1863 15 20.5V21.5ZM15 21.5H21V20.5C21 17.1863 18.3137 14.5 15 14.5C13.9071 14.5 12.8825 14.7922 12 15.3027M13 7.5C13 9.70914 11.2091 11.5 9 11.5C6.79086 11.5 5 9.70914 5 7.5C5 5.29086 6.79086 3.5 9 3.5C11.2091 3.5 13 5.29086 13 7.5Z" stroke="#D1D5DB" stroke-linecap="round" stroke-linejoin="round"/>
</g>
</svg>
