<svg width="21" height="24" viewBox="0 0 21 24" fill="none" xmlns="http://www.w3.org/2000/svg">
<g clip-path="url(#clip0_0_559)">
<path d="M10.3258 1.18703C10.4135 1.36857 10.4447 1.57224 10.4155 1.77173C10.3863 1.97122 10.2979 2.15735 10.1617 2.30608C9.09523 3.48053 8.34119 4.90431 7.96899 6.44646C6.72201 11.5746 9.89283 16.7436 15.0452 17.9965C15.7173 18.1599 16.3886 18.2489 17.0499 18.2679C17.2528 18.273 17.4497 18.3378 17.616 18.4541C17.7822 18.5705 17.9106 18.7332 17.9849 18.9221C18.064 19.1189 18.0759 19.3363 18.0187 19.5405C17.9614 19.7447 17.8383 19.9243 17.6685 20.0513C16.3694 21.0368 14.8668 21.72 13.2702 22.051C11.6736 22.382 10.0233 22.3526 8.43954 21.9648C2.56023 20.5352 -1.05011 14.6406 0.368984 8.80464C1.43702 4.41238 5.04917 1.30062 9.2762 0.637345C9.48707 0.603027 9.70338 0.638059 9.89265 0.737178C10.0819 0.836298 10.2339 0.994152 10.3258 1.18703ZM8.549 2.1503C6.8804 2.58314 5.36025 3.45998 4.1501 4.68763C2.93996 5.91528 2.08504 7.44786 1.6762 9.12251C0.429539 14.2494 3.60163 19.4187 8.75399 20.6716C9.98729 20.9738 11.2683 21.0283 12.5228 20.8321C13.7773 20.6359 14.9805 20.1928 16.0626 19.5285C15.6198 19.4775 15.1758 19.3979 14.7307 19.2897C8.85143 17.8601 5.24237 11.9658 6.66146 6.12987C7.02336 4.64155 7.67653 3.2997 8.549 2.1503Z" fill="#D1D5DB"/>
</g>
<defs>
<clipPath id="clip0_0_559">
<rect width="21" height="24" fill="white"/>
</clipPath>
</defs>
</svg>
