<svg width="24" height="24" viewBox="0 0 24 24" fill="none" xmlns="http://www.w3.org/2000/svg">
<g id="icon-transport">
<path id="Group" d="M2.9502 19.7188H15.4914" stroke="#D1D5DB" stroke-linecap="round" stroke-linejoin="round"/>
<path id="Group_2" d="M2.33227 13.1383L5.61564 16.2134C6.05344 16.6239 6.61201 16.8821 7.20829 16.9496C7.80456 17.0171 8.40669 16.8903 8.92513 16.588L22.1108 8.92193L20.4909 6.93571C20.0695 6.42092 19.478 6.07386 18.8231 5.95723C18.1683 5.8406 17.4933 5.9621 16.9202 6.29977L13.0533 8.57347L7.82777 6.83117L6.39076 7.44969C6.28325 7.49577 6.18907 7.56819 6.1169 7.66026C6.04473 7.75233 5.9969 7.8611 5.97781 7.97652C5.95872 8.09195 5.96899 8.21033 6.00767 8.32074C6.04636 8.43116 6.11221 8.53005 6.19915 8.60831L8.87287 11.0127L6.4343 12.4065L3.99573 11.3611L2.53259 11.9884C2.42614 12.0341 2.33277 12.1057 2.26094 12.1966C2.1891 12.2875 2.14107 12.3949 2.12118 12.5091C2.10129 12.6232 2.11018 12.7406 2.14704 12.8504C2.1839 12.9603 2.24756 13.0592 2.33227 13.1383Z" stroke="#D1D5DB" stroke-linecap="round" stroke-linejoin="round"/>
</g>
</svg>
