<svg width="36" height="36" viewBox="0 0 36 36" fill="none" xmlns="http://www.w3.org/2000/svg">
<g filter="url(#filter0_d_0_439)">
<rect x="4" width="28" height="28" rx="14" fill="#CFFAFE"/>
<path d="M23.3561 5.86066H23.2797C20.7611 5.86066 18.7122 7.74906 18.7122 10.0704V15.1495C18.7122 15.9281 19.3995 16.5616 20.2443 16.5616H20.5609V21.5368C20.5609 21.8592 20.8442 22.1203 21.194 22.1203H23.3561C23.7059 22.1203 23.9892 21.8592 23.9892 21.5368V6.44417C23.9892 6.12178 23.7059 5.86066 23.3561 5.86066ZM22.723 20.9533H21.8271V15.9781C21.8271 15.6557 21.5438 15.3946 21.194 15.3946H20.2443C20.0975 15.3946 19.9784 15.2844 19.9784 15.1495V10.0704C19.9784 8.56744 21.1667 7.31543 22.723 7.07109V20.9533Z" fill="#155E75"/>
<path d="M16.1762 5.86066C15.8264 5.86066 15.5431 6.12178 15.5431 6.44417V10.6455H14.2563V6.44417C14.2563 6.12178 13.973 5.86066 13.6232 5.86066C13.2734 5.86066 12.9901 6.12178 12.9901 6.44417V10.6455H11.7032V6.44417C11.7032 6.12178 11.4199 5.86066 11.0701 5.86066C10.7203 5.86066 10.437 6.12178 10.437 6.44417V11.229V12.365C10.437 13.3574 11.0001 14.2498 11.9047 14.7414L11.4923 20.4278C11.4532 20.9693 11.6613 21.5073 12.0637 21.9037C12.4661 22.3001 13.0344 22.5273 13.6236 22.5273C14.2124 22.5273 14.781 22.3001 15.1834 21.9037C15.5858 21.5073 15.794 20.9693 15.7548 20.4278L15.3425 14.7418C16.247 14.2502 16.8101 13.3577 16.8101 12.3654V11.229V6.44417C16.8093 6.12178 16.5256 5.86066 16.1762 5.86066ZM15.5431 12.365C15.5431 13.0237 15.1134 13.6061 14.4486 13.8486C14.1926 13.942 14.0315 14.1768 14.0501 14.4299L14.4909 20.5051C14.5072 20.7286 14.4245 20.942 14.2583 21.1057C14.0921 21.2695 13.8665 21.3596 13.6232 21.3596C13.3798 21.3596 13.1543 21.2695 12.9881 21.1057C12.8219 20.942 12.7392 20.7286 12.7554 20.5047L13.1962 14.4296C13.2144 14.1765 13.0534 13.9416 12.7977 13.8483C12.133 13.6057 11.7032 13.0233 11.7032 12.3647V11.8125H15.5431V12.365Z" fill="#155E75"/>
</g>
<defs>
<filter id="filter0_d_0_439" x="0" y="0" width="36" height="36" filterUnits="userSpaceOnUse" color-interpolation-filters="sRGB">
<feFlood flood-opacity="0" result="BackgroundImageFix"/>
<feColorMatrix in="SourceAlpha" type="matrix" values="0 0 0 0 0 0 0 0 0 0 0 0 0 0 0 0 0 0 127 0" result="hardAlpha"/>
<feMorphology radius="2" operator="erode" in="SourceAlpha" result="effect1_dropShadow_0_439"/>
<feOffset dy="4"/>
<feGaussianBlur stdDeviation="3"/>
<feColorMatrix type="matrix" values="0 0 0 0 0 0 0 0 0 0 0 0 0 0 0 0 0 0 0.05 0"/>
<feBlend mode="normal" in2="BackgroundImageFix" result="effect1_dropShadow_0_439"/>
<feBlend mode="normal" in="SourceGraphic" in2="effect1_dropShadow_0_439" result="shape"/>
</filter>
</defs>
</svg>
