<svg width="36" height="36" viewBox="0 0 36 36" fill="none" xmlns="http://www.w3.org/2000/svg">
<g filter="url(#filter0_d_0_467)">
<rect x="4" width="28" height="28" rx="14" fill="#CFFAFE"/>
<path d="M15.2452 14.3823C15.7216 14.3823 16.1872 14.2483 16.5833 13.9971C16.9794 13.746 17.2881 13.389 17.4704 12.9713C17.6527 12.5537 17.7004 12.0941 17.6074 11.6507C17.5145 11.2073 17.2851 10.8001 16.9483 10.4804C16.6115 10.1607 16.1823 9.94303 15.7151 9.85484C15.2479 9.76664 14.7636 9.81191 14.3235 9.98491C13.8834 10.1579 13.5073 10.4509 13.2426 10.8268C12.978 11.2026 12.8367 11.6446 12.8367 12.0966C12.8367 12.7028 13.0905 13.2842 13.5422 13.7129C13.9938 14.1415 14.6064 14.3823 15.2452 14.3823ZM15.2452 11.3347C15.404 11.3347 15.5592 11.3794 15.6913 11.4631C15.8233 11.5469 15.9262 11.6658 15.9869 11.8051C16.0477 11.9443 16.0636 12.0975 16.0326 12.2453C16.0017 12.3931 15.9252 12.5288 15.8129 12.6354C15.7006 12.7419 15.5576 12.8145 15.4018 12.8439C15.2461 12.8733 15.0847 12.8582 14.938 12.8005C14.7913 12.7429 14.6659 12.6452 14.5777 12.5199C14.4895 12.3946 14.4424 12.2473 14.4424 12.0966C14.4424 11.8946 14.527 11.7008 14.6775 11.5579C14.8281 11.415 15.0323 11.3347 15.2452 11.3347ZM25.6821 9.81092H19.2594C19.0465 9.81092 18.8423 9.89119 18.6917 10.0341C18.5411 10.177 18.4566 10.3708 18.4566 10.5728V15.1443H12.0339V9.04901C12.0339 8.84694 11.9493 8.65315 11.7987 8.51027C11.6482 8.36738 11.444 8.28711 11.2311 8.28711C11.0181 8.28711 10.8139 8.36738 10.6634 8.51027C10.5128 8.65315 10.4282 8.84694 10.4282 9.04901V18.9538C10.4282 19.1558 10.5128 19.3496 10.6634 19.4925C10.8139 19.6354 11.0181 19.7157 11.2311 19.7157C11.444 19.7157 11.6482 19.6354 11.7987 19.4925C11.9493 19.3496 12.0339 19.1558 12.0339 18.9538V16.6681H26.4849V18.9538C26.4849 19.1558 26.5695 19.3496 26.72 19.4925C26.8706 19.6354 27.0748 19.7157 27.2877 19.7157C27.5006 19.7157 27.7049 19.6354 27.8554 19.4925C28.006 19.3496 28.0906 19.1558 28.0906 18.9538V12.0966C28.0906 11.4904 27.8368 10.909 27.3851 10.4804C26.9334 10.0517 26.3208 9.81092 25.6821 9.81092ZM26.4849 15.1443H20.0622V11.3347H25.6821C25.895 11.3347 26.0992 11.415 26.2497 11.5579C26.4003 11.7008 26.4849 11.8946 26.4849 12.0966V15.1443Z" fill="#155E75"/>
</g>
<defs>
<filter id="filter0_d_0_467" x="0" y="0" width="36" height="36" filterUnits="userSpaceOnUse" color-interpolation-filters="sRGB">
<feFlood flood-opacity="0" result="BackgroundImageFix"/>
<feColorMatrix in="SourceAlpha" type="matrix" values="0 0 0 0 0 0 0 0 0 0 0 0 0 0 0 0 0 0 127 0" result="hardAlpha"/>
<feMorphology radius="2" operator="erode" in="SourceAlpha" result="effect1_dropShadow_0_467"/>
<feOffset dy="4"/>
<feGaussianBlur stdDeviation="3"/>
<feColorMatrix type="matrix" values="0 0 0 0 0 0 0 0 0 0 0 0 0 0 0 0 0 0 0.05 0"/>
<feBlend mode="normal" in2="BackgroundImageFix" result="effect1_dropShadow_0_467"/>
<feBlend mode="normal" in="SourceGraphic" in2="effect1_dropShadow_0_467" result="shape"/>
</filter>
</defs>
</svg>
