<svg width="106" height="106" viewBox="0 0 106 106" fill="none" xmlns="http://www.w3.org/2000/svg">
<g id="ico select (2) 1">
<g id="Group">
<path id="Vector" d="M96.9689 76.5521C97.0016 76.5375 97.0289 76.5131 97.0472 76.4823C97.0654 76.4515 97.0736 76.4158 97.0708 76.3801C97.0679 76.3444 97.054 76.3105 97.0311 76.283C97.0081 76.2555 96.9773 76.2358 96.9427 76.2266L72.2309 69.4804C72.1943 69.4707 72.1554 69.4733 72.1204 69.4878C72.0853 69.5023 72.056 69.5279 72.0369 69.5607C72.0179 69.5935 72.0101 69.6317 72.0148 69.6693C72.0195 69.7069 72.0364 69.742 72.0629 69.7691L84.4424 82.1171C84.4672 82.1423 84.4991 82.1593 84.5338 82.1659C84.5685 82.1725 84.6044 82.1683 84.6367 82.1539L96.9689 76.5521Z" stroke="#04CEDB" stroke-width="2"/>
<path id="Vector_2" d="M69.7477 72.0529C69.7224 72.0271 69.6893 72.0105 69.6535 72.0056C69.6178 72.0007 69.5814 72.0078 69.5502 72.0259C69.5189 72.0439 69.4945 72.0718 69.4809 72.1052C69.4672 72.1386 69.465 72.1756 69.4747 72.2104L76.2419 96.9431C76.2507 96.9753 76.2691 97.004 76.2947 97.0254C76.3203 97.0467 76.3518 97.0597 76.385 97.0626C76.4182 97.0655 76.4515 97.0581 76.4804 97.0414C76.5093 97.0247 76.5323 96.9996 76.5464 96.9694L82.1482 84.6424C82.1624 84.6122 82.167 84.5784 82.1613 84.5455C82.1557 84.5127 82.1401 84.4823 82.1167 84.4586L69.7477 72.0529Z" stroke="#04CEDB" stroke-width="2"/>
</g>
<path id="Vector_3" d="M97.4987 72.9505L102.932 74.4205C103.163 74.4849 103.364 74.6279 103.499 74.8248C104.03 75.6018 104.03 76.9773 103.032 77.434C101.153 78.295 99.3502 79.1158 97.6247 79.8963C97.5105 79.9478 97.4137 80.0312 97.3457 80.1364C97.2777 80.2417 97.2415 80.3643 97.2415 80.4895C97.2485 81.326 97.2537 82.1608 97.2572 82.9938C97.2625 86.401 94.6952 89.3725 91.6502 90.3385C89.2352 91.0998 86.0222 90.6745 83.3867 90.727C83.2771 90.7284 83.17 90.7613 83.078 90.8217C82.9859 90.8821 82.9128 90.9677 82.867 91.0683L77.3965 103.112C77.3055 103.315 77.162 103.467 76.966 103.569C75.9527 104.109 74.6717 103.852 74.3462 102.666C73.2052 98.4761 72.1535 94.5945 71.191 91.021C71.168 90.9369 71.1181 90.8626 71.0489 90.8095C70.9797 90.7564 70.895 90.7274 70.8077 90.727C51.8167 90.734 32.0977 90.7515 11.6507 90.7795C9.67324 90.7795 8.15249 90.5503 7.08849 90.0918C5.11449 89.2413 3.67074 87.7923 2.75724 85.7448C2.31974 84.7648 2.10449 83.167 2.11149 80.9515C2.17449 60.403 2.11149 39.844 2.13249 19.2798C2.13599 17.4248 2.42649 15.939 3.00399 14.8225C3.93499 13.02 5.31574 11.7303 7.14624 10.9533C9.56124 9.92429 12.6325 10.423 15.2522 10.318C15.3268 10.3137 15.3978 10.2851 15.4539 10.2366C15.51 10.1881 15.548 10.1225 15.562 10.0503C16.1465 7.16279 17.4415 4.97003 19.447 3.47203C21.9775 1.58728 25.3532 1.70278 27.7945 3.71353C29.716 5.28853 30.892 7.54604 31.396 10.045C31.4345 10.241 31.5535 10.339 31.753 10.339L41.4602 10.3443C41.5413 10.3444 41.6198 10.3161 41.6822 10.2643C41.7445 10.2125 41.7868 10.1405 41.8015 10.0608C43.87 -0.433966 55.5407 -0.454966 57.646 10.0608C57.6845 10.2498 57.8 10.3443 57.9925 10.3443H67.7207C67.7963 10.3445 67.8696 10.3184 67.928 10.2705C67.9864 10.2226 68.0264 10.1559 68.041 10.0818C70.1882 -0.538965 81.8327 -0.391966 83.896 10.1185C83.9053 10.1683 83.9311 10.2134 83.9692 10.2467C84.0073 10.2801 84.0555 10.2996 84.106 10.3023C85.4045 10.3688 86.7835 10.374 88.243 10.318C93.5507 10.1185 97.294 13.5888 97.2782 18.9595C97.2432 36.9915 97.2362 54.8835 97.2572 72.6355C97.2571 72.7067 97.2807 72.776 97.3243 72.8328C97.3679 72.8897 97.4292 72.9311 97.4987 72.9505ZM21.6782 6.02354C20.4322 6.75854 19.5397 8.08154 19.0007 9.99254C18.9342 10.227 19.0235 10.3443 19.2685 10.3443L27.6685 10.339C27.9485 10.339 28.0465 10.206 27.9625 9.94004C27.6265 8.88304 27.154 7.96779 26.545 7.19429C25.0995 5.35679 23.4772 4.96654 21.6782 6.02354ZM45.5867 10.339L53.8502 10.3495C53.8702 10.3495 53.89 10.3456 53.9085 10.3379C53.927 10.3303 53.9438 10.3191 53.9579 10.3049C53.972 10.2908 53.9832 10.274 53.9909 10.2555C53.9986 10.2371 54.0025 10.2173 54.0025 10.1973V10.0975C54.004 8.9093 53.5587 7.7691 52.7643 6.92744C51.9698 6.08578 50.8914 5.6115 49.7657 5.60878H49.6922C49.1341 5.60744 48.5811 5.72224 48.065 5.94663C47.5489 6.17101 47.0797 6.50058 46.6842 6.91649C46.2888 7.3324 45.9749 7.82649 45.7605 8.37052C45.546 8.91454 45.4352 9.49783 45.4345 10.087V10.1868C45.4345 10.2272 45.4505 10.2659 45.4791 10.2944C45.5076 10.323 45.5464 10.339 45.5867 10.339ZM71.8 10.3495L80.158 10.339C80.1886 10.339 80.218 10.3269 80.2397 10.3052C80.2613 10.2835 80.2735 10.2542 80.2735 10.2235V10.1395C80.2727 9.54482 80.1617 8.95607 79.9467 8.40696C79.7317 7.85784 79.417 7.35912 79.0206 6.93931C78.6242 6.5195 78.1539 6.18684 77.6365 5.96034C77.1191 5.73384 76.5648 5.61794 76.0052 5.61929H75.9317C74.8033 5.62199 73.7222 6.10069 72.9258 6.95023C72.1294 7.79977 71.6829 8.95065 71.6845 10.15V10.234C71.6845 10.2647 71.6967 10.294 71.7183 10.3157C71.74 10.3374 71.7694 10.3495 71.8 10.3495ZM22.9487 23.5533C18.2132 22.8183 15.625 18.3978 15.331 13.9353C15.3242 13.8323 15.2783 13.7359 15.2029 13.6664C15.1275 13.5969 15.0286 13.5597 14.9267 13.5625C12.832 13.6255 10.4537 13.2528 8.51649 14.0613C6.43049 14.9328 5.39274 16.6565 5.40324 19.2325C5.42074 22.4 5.42074 25.3698 5.40324 28.1418C5.40254 28.1719 5.408 28.2018 5.41929 28.2298C5.43059 28.2578 5.44749 28.2833 5.46901 28.3048C5.49053 28.3263 5.51624 28.3434 5.54461 28.3551C5.57299 28.3668 5.60346 28.3728 5.63424 28.3728L93.7922 28.3623C93.8507 28.3623 93.9068 28.3396 93.9482 28.2992C93.9895 28.2589 94.0127 28.2041 94.0127 28.147C94.0057 24.969 93.9952 21.924 93.9812 19.012C93.9655 14.9433 91.2145 13.5153 87.5132 13.5415C82.2492 13.5765 76.8995 13.58 71.464 13.552C71.4266 13.5512 71.3893 13.5582 71.3548 13.5726C71.3202 13.587 71.2891 13.6086 71.2634 13.6358C71.2376 13.663 71.2179 13.6953 71.2054 13.7306C71.193 13.7659 71.188 13.8035 71.191 13.8408C71.3957 16.2558 72.7975 19.6263 75.4382 20.062C75.5914 20.0871 75.7305 20.1664 75.8306 20.2858C75.9307 20.4051 75.9852 20.5566 75.9842 20.713L75.9737 22.9653C75.9702 23.4133 75.7497 23.5988 75.3122 23.5218C70.6187 22.6923 68.167 18.4083 67.8047 13.9038C67.7981 13.8109 67.7565 13.7241 67.6882 13.6607C67.62 13.5974 67.5303 13.5623 67.4372 13.5625L45.151 13.5678C45.1202 13.5677 45.0897 13.5739 45.0615 13.5861C45.0332 13.5982 45.0079 13.616 44.9871 13.6382C44.9664 13.6605 44.9506 13.6868 44.9408 13.7153C44.9311 13.7439 44.9275 13.7741 44.9305 13.804C45.13 16.0878 46.495 19.6158 49.0307 20.0043C49.5032 20.0778 49.7377 20.3543 49.7342 20.8338L49.7185 22.9548C49.715 23.3993 49.4945 23.5848 49.057 23.5113C44.3845 22.7028 41.938 18.445 41.5442 13.8985C41.5376 13.807 41.496 13.7214 41.4277 13.6591C41.3595 13.5967 41.2698 13.5622 41.1767 13.5625L19.027 13.573C18.7785 13.573 18.6647 13.6955 18.6857 13.9405C18.9062 16.4028 20.3552 19.5895 23.0537 20.0778C23.3512 20.1338 23.5017 20.3123 23.5052 20.6133L23.5315 23.0545C23.535 23.45 23.3407 23.6163 22.9487 23.5533ZM70.057 87.4878C70.0754 87.4876 70.0936 87.4832 70.1101 87.475C70.1266 87.4667 70.141 87.4547 70.1521 87.44C70.1633 87.4253 70.1709 87.4083 70.1744 87.3902C70.178 87.372 70.1773 87.3534 70.1725 87.3355L68.8967 82.642C68.8722 82.558 68.8162 82.516 68.7287 82.516L59.1947 82.5003C58.8629 82.4989 58.5451 82.3661 58.3109 82.1309C58.0767 81.8958 57.9452 81.5774 57.9452 81.2455L57.9557 70.609C57.9571 70.2925 58.0833 69.9894 58.3066 69.766C58.53 69.5427 58.8323 69.4173 59.1475 69.4173H64.9435C64.9843 69.417 65.0246 69.4075 65.0611 69.3893C65.0977 69.3711 65.1296 69.3447 65.1544 69.3123C65.1793 69.2799 65.1963 69.2422 65.2044 69.2022C65.2124 69.1621 65.2111 69.1208 65.2007 69.0813C64.9435 68.11 64.1717 66.2358 64.6547 65.3538C65.0887 64.5628 65.7992 64.302 66.7862 64.5715C75.7952 67.011 84.7972 69.4663 93.7922 71.9373C93.8178 71.9437 93.8444 71.9442 93.8702 71.9387C93.8959 71.9332 93.9201 71.922 93.9408 71.9058C93.9616 71.8896 93.9784 71.8689 93.9899 71.8452C94.0015 71.8216 94.0075 71.7956 94.0075 71.7693L94.0127 31.864C94.0127 31.8097 93.9917 31.7577 93.9543 31.7193C93.9169 31.6809 93.8661 31.6593 93.8132 31.6593L5.78124 31.6488C5.6796 31.6488 5.58212 31.6897 5.51024 31.7626C5.43837 31.8354 5.39799 31.9342 5.39799 32.0373C5.38049 49.4813 5.37874 66.0993 5.39274 81.8913C5.39624 84.2083 6.26599 85.8323 8.00199 86.7633C8.92249 87.2568 10.6112 87.5018 13.0682 87.4983C31.9822 87.4913 50.9785 87.4878 70.057 87.4878ZM96.9685 76.552C97.0012 76.5374 97.0285 76.513 97.0467 76.4822C97.0649 76.4514 97.0732 76.4157 97.0703 76.38C97.0674 76.3443 97.0536 76.3104 97.0306 76.283C97.0077 76.2555 96.9768 76.2358 96.9422 76.2265L72.2305 69.4803C72.1938 69.4706 72.155 69.4732 72.1199 69.4877C72.0849 69.5023 72.0556 69.5279 72.0365 69.5607C72.0174 69.5935 72.0096 69.6316 72.0143 69.6692C72.019 69.7069 72.0359 69.742 72.0625 69.769L84.442 82.1171C84.4668 82.1423 84.4986 82.1593 84.5334 82.1658C84.5681 82.1724 84.604 82.1682 84.6362 82.1538L96.9685 76.552ZM69.7472 72.0528C69.722 72.027 69.6889 72.0104 69.6531 72.0055C69.6173 72.0006 69.581 72.0078 69.5497 72.0258C69.5185 72.0438 69.4941 72.0717 69.4804 72.1051C69.4668 72.1385 69.4646 72.1755 69.4742 72.2103L76.2415 96.943C76.2502 96.9752 76.2686 97.0039 76.2942 97.0253C76.3198 97.0467 76.3514 97.0597 76.3846 97.0625C76.4178 97.0654 76.4511 97.058 76.4799 97.0413C76.5088 97.0246 76.5319 96.9995 76.546 96.9693L82.1477 84.6423C82.1619 84.6121 82.1665 84.5783 82.1609 84.5455C82.1553 84.5126 82.1397 84.4823 82.1162 84.4585L69.7472 72.0528ZM61.2055 78.9565C61.2055 78.9986 61.2138 79.0402 61.2299 79.0791C61.246 79.118 61.2696 79.1533 61.2993 79.183C61.329 79.2127 61.3643 79.2363 61.4032 79.2524C61.442 79.2685 61.4837 79.2768 61.5257 79.2768L67.5265 79.2558C67.5758 79.2559 67.6244 79.2446 67.6686 79.2229C67.7128 79.2011 67.7514 79.1694 67.7814 79.1303C67.8114 79.0912 67.8319 79.0457 67.8414 78.9973C67.8509 78.949 67.8492 78.8991 67.8362 78.8515L66.2507 72.9348C66.2323 72.8668 66.1919 72.8069 66.1359 72.7642C66.0799 72.7214 66.0114 72.6984 65.941 72.6985L61.531 72.667C61.4461 72.667 61.3646 72.7008 61.3045 72.7608C61.2445 72.8209 61.2107 72.9024 61.2107 72.9873L61.2055 78.9565ZM84.6415 87.157C84.526 87.3915 84.5995 87.5088 84.862 87.5088C86.9935 87.4983 89.734 87.808 91.5977 86.695C93.2322 85.7115 94.0337 84.119 94.0022 81.9175C93.9952 81.669 93.8797 81.5973 93.6557 81.7023L85.7702 85.288C85.5904 85.3694 85.4438 85.5123 85.3555 85.6923L84.6415 87.157Z" fill="#04CEDB"/>
<path id="Vector_4" d="M21.789 48.3596C21.789 48.7188 21.6463 49.0634 21.3923 49.3174C21.1383 49.5714 20.7938 49.7141 20.4345 49.7141H10.1025C9.74331 49.7141 9.39879 49.5714 9.14477 49.3174C8.89075 49.0634 8.74805 48.7188 8.74805 48.3596V37.9541C8.74805 37.5949 8.89075 37.2503 9.14477 36.9963C9.39879 36.7423 9.74331 36.5996 10.1025 36.5996H20.4345C20.7938 36.5996 21.1383 36.7423 21.3923 36.9963C21.6463 37.2503 21.789 37.5949 21.789 37.9541V48.3596ZM18.5448 40.0178C18.5448 39.9978 18.5409 39.978 18.5333 39.9595C18.5257 39.9411 18.5145 39.9243 18.5004 39.9101C18.4863 39.8959 18.4695 39.8847 18.4511 39.877C18.4326 39.8693 18.4128 39.8654 18.3928 39.8653L12.1348 39.8544C12.1148 39.8544 12.095 39.8583 12.0765 39.8659C12.0581 39.8735 12.0413 39.8847 12.0271 39.8988C12.0129 39.9129 12.0017 39.9297 11.994 39.9481C11.9863 39.9666 11.9823 39.9864 11.9823 40.0064L11.9713 46.3064C11.9713 46.3264 11.9752 46.3462 11.9828 46.3647C11.9904 46.3832 12.0016 46.4 12.0157 46.4141C12.0298 46.4283 12.0466 46.4395 12.065 46.4472C12.0835 46.4549 12.1033 46.4589 12.1233 46.4589L18.3813 46.4698C18.4013 46.4699 18.4211 46.4659 18.4396 46.4583C18.458 46.4507 18.4748 46.4395 18.489 46.4254C18.5032 46.4113 18.5144 46.3945 18.5221 46.3761C18.5298 46.3576 18.5338 46.3378 18.5338 46.3178L18.5448 40.0178Z" fill="#04CEDB"/>
<path id="Vector_5" d="M38.231 48.2435C38.231 48.6348 38.0755 49.01 37.7989 49.2867C37.5222 49.5633 37.147 49.7187 36.7557 49.7187H26.6022C26.2109 49.7187 25.8357 49.5633 25.559 49.2867C25.2824 49.01 25.127 48.6348 25.127 48.2435V38.069C25.127 37.6777 25.2824 37.3025 25.559 37.0258C25.8357 36.7492 26.2109 36.5938 26.6022 36.5938H36.7557C37.147 36.5938 37.5222 36.7492 37.7989 37.0258C38.0755 37.3025 38.231 37.6777 38.231 38.069V48.2435ZM34.9916 40.0845C34.9915 40.0534 34.9854 40.0227 34.9735 39.9941C34.9615 39.9654 34.9441 39.9394 34.9221 39.9175C34.9001 39.8956 34.8741 39.8782 34.8454 39.8664C34.8167 39.8546 34.786 39.8485 34.7549 39.8486L28.5809 39.8594C28.5499 39.8595 28.5192 39.8656 28.4906 39.8776C28.4619 39.8895 28.4359 39.9069 28.414 39.9289C28.3921 39.9509 28.3747 39.977 28.3629 40.0056C28.3511 40.0343 28.345 40.0651 28.3451 40.0961L28.3558 46.228C28.3559 46.2591 28.362 46.2898 28.3739 46.3184C28.3859 46.3471 28.4033 46.3731 28.4253 46.395C28.4473 46.4169 28.4733 46.4343 28.502 46.4461C28.5307 46.4579 28.5615 46.464 28.5925 46.4639L34.7665 46.4531C34.7975 46.453 34.8282 46.4469 34.8569 46.4349C34.8855 46.423 34.9115 46.4056 34.9334 46.3836C34.9553 46.3616 34.9727 46.3355 34.9845 46.3069C34.9963 46.2782 35.0024 46.2474 35.0023 46.2164L34.9916 40.0845Z" fill="#04CEDB"/>
<path id="Vector_6" d="M54.6123 48.2803C54.6123 48.6618 54.4607 49.0277 54.191 49.2974C53.9212 49.5672 53.5553 49.7187 53.1738 49.7187H42.9678C42.5863 49.7187 42.2204 49.5672 41.9506 49.2974C41.6809 49.0277 41.5293 48.6618 41.5293 48.2803V38.0322C41.5293 37.6507 41.6809 37.2848 41.9506 37.0151C42.2204 36.7453 42.5863 36.5938 42.9678 36.5938H53.1738C53.5553 36.5938 53.9212 36.7453 54.191 37.0151C54.4607 37.2848 54.6123 37.6507 54.6123 38.0322V48.2803ZM51.3835 40.0745C51.3835 40.016 51.3603 39.9599 51.319 39.9186C51.2776 39.8772 51.2215 39.854 51.163 39.854H44.968C44.9096 39.854 44.8535 39.8772 44.8121 39.9186C44.7708 39.9599 44.7475 40.016 44.7475 40.0745V46.238C44.7475 46.2965 44.7708 46.3526 44.8121 46.3939C44.8535 46.4353 44.9096 46.4585 44.968 46.4585H51.163C51.2215 46.4585 51.2776 46.4353 51.319 46.3939C51.3603 46.3526 51.3835 46.2965 51.3835 46.238V40.0745Z" fill="#04CEDB"/>
<path id="Vector_7" d="M71.0019 48.3544C71.0019 48.715 70.8587 49.0608 70.6037 49.3158C70.3487 49.5709 70.0028 49.7141 69.6422 49.7141H59.3207C58.9601 49.7141 58.6142 49.5709 58.3592 49.3158C58.1042 49.0608 57.9609 48.715 57.9609 48.3544V37.9594C57.9609 37.5987 58.1042 37.2529 58.3592 36.9979C58.6142 36.7429 58.9601 36.5996 59.3207 36.5996H69.6422C70.0028 36.5996 70.3487 36.7429 70.6037 36.9979C70.8587 37.2529 71.0019 37.5987 71.0019 37.9594V48.3544ZM67.7894 40.0446C67.7894 40.0218 67.785 39.9993 67.7764 39.9782C67.7678 39.9572 67.7551 39.938 67.739 39.9219C67.723 39.9057 67.7039 39.8929 67.683 39.8841C67.662 39.8754 67.6394 39.8708 67.6167 39.8707L61.4007 39.849C61.378 39.849 61.3554 39.8534 61.3344 39.862C61.3133 39.8706 61.2942 39.8833 61.278 39.8993C61.2619 39.9154 61.2491 39.9344 61.2403 39.9554C61.2315 39.9764 61.2269 39.9989 61.2269 40.0217L61.205 46.2796C61.2049 46.3024 61.2093 46.3249 61.218 46.346C61.2266 46.367 61.2393 46.3862 61.2553 46.4023C61.2714 46.4185 61.2904 46.4313 61.3114 46.4401C61.3324 46.4489 61.3549 46.4534 61.3777 46.4535L67.5936 46.4752C67.6164 46.4753 67.6389 46.4709 67.66 46.4622C67.681 46.4536 67.7002 46.4409 67.7163 46.4249C67.7325 46.4088 67.7453 46.3898 67.7541 46.3688C67.7629 46.3478 67.7674 46.3253 67.7675 46.3026L67.7894 40.0446Z" fill="#04CEDB"/>
<path id="Vector_8" d="M87.4617 48.2645C87.4617 48.6502 87.3085 49.0201 87.0357 49.2928C86.763 49.5655 86.3931 49.7187 86.0074 49.7187H75.7804C75.3947 49.7187 75.0248 49.5655 74.7521 49.2928C74.4794 49.0201 74.3262 48.6502 74.3262 48.2645V38.048C74.3262 37.6623 74.4794 37.2924 74.7521 37.0197C75.0248 36.747 75.3947 36.5938 75.7804 36.5938H86.0074C86.3931 36.5938 86.763 36.747 87.0357 37.0197C87.3085 37.2924 87.4617 37.6623 87.4617 38.048V48.2645ZM84.2068 40.075C84.2069 40.0474 84.2015 40.0201 84.191 39.9946C84.1805 39.9691 84.1651 39.946 84.1456 39.9264C84.1261 39.9069 84.103 39.8914 84.0775 39.8808C84.0521 39.8702 84.0248 39.8647 83.9972 39.8647L77.8127 39.8538C77.7851 39.8538 77.7578 39.8592 77.7323 39.8697C77.7068 39.8802 77.6836 39.8956 77.6641 39.9151C77.6446 39.9346 77.6291 39.9577 77.6185 39.9831C77.6079 40.0086 77.6024 40.0359 77.6023 40.0635L77.5915 46.2375C77.5915 46.2651 77.5968 46.2924 77.6074 46.3179C77.6179 46.3434 77.6333 46.3665 77.6528 46.3861C77.6722 46.4056 77.6954 46.4211 77.7208 46.4317C77.7463 46.4423 77.7736 46.4478 77.8011 46.4478L83.9856 46.4587C84.0132 46.4587 84.0405 46.4533 84.066 46.4428C84.0915 46.4323 84.1147 46.4169 84.1342 46.3974C84.1538 46.3779 84.1693 46.3548 84.1799 46.3294C84.1905 46.3039 84.196 46.2766 84.196 46.249L84.2068 40.075Z" fill="#04CEDB"/>
<path id="Vector_9" d="M21.7844 64.7659C21.7844 65.1251 21.6417 65.4696 21.3877 65.7236C21.1337 65.9777 20.7891 66.1204 20.4299 66.1204H10.1084C9.74917 66.1204 9.40465 65.9777 9.15063 65.7236C8.89661 65.4696 8.75391 65.1251 8.75391 64.7659V54.3604C8.75391 54.0011 8.89661 53.6566 9.15063 53.4026C9.40465 53.1486 9.74917 53.0059 10.1084 53.0059H20.4299C20.7891 53.0059 21.1337 53.1486 21.3877 53.4026C21.6417 53.6566 21.7844 54.0011 21.7844 54.3604V64.7659ZM18.5452 56.5186C18.5453 56.4834 18.5384 56.4486 18.525 56.4161C18.5116 56.3836 18.4919 56.354 18.4671 56.3291C18.4423 56.3042 18.4128 56.2844 18.3804 56.2709C18.3479 56.2574 18.3131 56.2504 18.2779 56.2504L12.2509 56.2399C12.2158 56.2398 12.1809 56.2467 12.1484 56.2601C12.1159 56.2735 12.0864 56.2931 12.0615 56.3179C12.0366 56.3428 12.0168 56.3722 12.0033 56.4047C11.9898 56.4372 11.9828 56.472 11.9827 56.5071L11.9721 62.5761C11.972 62.6113 11.9789 62.6461 11.9923 62.6786C12.0057 62.7111 12.0254 62.7407 12.0502 62.7656C12.075 62.7905 12.1045 62.8103 12.137 62.8238C12.1694 62.8373 12.2042 62.8443 12.2394 62.8444L18.2664 62.8549C18.3015 62.8549 18.3364 62.8481 18.3689 62.8347C18.4014 62.8213 18.4309 62.8016 18.4558 62.7768C18.4808 62.752 18.5005 62.7225 18.514 62.69C18.5276 62.6575 18.5345 62.6227 18.5346 62.5876L18.5452 56.5186Z" fill="#04CEDB"/>
<path id="Vector_10" d="M38.2397 64.6334C38.24 64.8264 38.2023 65.0176 38.1288 65.1961C38.0552 65.3746 37.9472 65.5368 37.8109 65.6736C37.6747 65.8103 37.5128 65.9189 37.3346 65.9931C37.1564 66.0673 36.9653 66.1056 36.7722 66.106L26.5977 66.1237C26.4047 66.124 26.2135 66.0863 26.035 66.0128C25.8565 65.9392 25.6943 65.8312 25.5575 65.695C25.4208 65.5587 25.3122 65.3968 25.238 65.2186C25.1639 65.0404 25.1255 64.8493 25.1252 64.6563L25.1074 54.4923C25.1071 54.2992 25.1448 54.108 25.2183 53.9295C25.2919 53.7511 25.3999 53.5888 25.5362 53.4521C25.6724 53.3153 25.8343 53.2068 26.0125 53.1326C26.1907 53.0584 26.3818 53.02 26.5749 53.0197L36.7494 53.002C36.9424 53.0016 37.1336 53.0393 37.3121 53.1129C37.4906 53.1864 37.6528 53.2944 37.7896 53.4307C37.9263 53.567 38.0349 53.7288 38.109 53.907C38.1832 54.0853 38.2216 54.2763 38.2219 54.4694L38.2397 64.6334ZM35.0021 56.5079C35.0022 56.4748 34.9957 56.442 34.9831 56.4114C34.9705 56.3808 34.952 56.353 34.9286 56.3296C34.9053 56.3061 34.8775 56.2875 34.847 56.2748C34.8164 56.2621 34.7837 56.2555 34.7506 56.2554L28.6081 56.2447C28.575 56.2447 28.5422 56.2511 28.5116 56.2637C28.481 56.2763 28.4532 56.2949 28.4297 56.3182C28.4063 56.3416 28.3877 56.3693 28.3749 56.3999C28.3622 56.4304 28.3557 56.4632 28.3556 56.4963L28.345 62.5863C28.3449 62.6193 28.3514 62.6521 28.364 62.6827C28.3766 62.7133 28.3951 62.7411 28.4185 62.7646C28.4418 62.788 28.4696 62.8066 28.5001 62.8194C28.5307 62.8321 28.5634 62.8387 28.5965 62.8387L34.739 62.8494C34.7721 62.8495 34.8049 62.843 34.8355 62.8304C34.8661 62.8178 34.8939 62.7993 34.9174 62.7759C34.9408 62.7526 34.9594 62.7248 34.9721 62.6943C34.9849 62.6637 34.9914 62.6309 34.9915 62.5979L35.0021 56.5079Z" fill="#04CEDB"/>
<path id="Vector_11" d="M54.606 64.6772C54.606 65.0587 54.4544 65.4246 54.1846 65.6944C53.9149 65.9642 53.549 66.1157 53.1675 66.1157H42.9405C42.7515 66.1157 42.5645 66.0785 42.39 66.0062C42.2154 65.9339 42.0569 65.828 41.9233 65.6944C41.7897 65.5608 41.6837 65.4022 41.6115 65.2277C41.5392 65.0532 41.502 64.8661 41.502 64.6772V54.4502C41.502 54.2613 41.5392 54.0743 41.6115 53.8997C41.6837 53.7252 41.7897 53.5666 41.9233 53.433C42.0569 53.2995 42.2154 53.1935 42.39 53.1212C42.5645 53.0489 42.7515 53.0117 42.9405 53.0117H53.1675C53.549 53.0117 53.9149 53.1633 54.1846 53.433C54.4544 53.7028 54.606 54.0687 54.606 54.4502V64.6772ZM51.3772 56.535C51.3773 56.4598 51.3476 56.3877 51.2945 56.3344C51.2415 56.2812 51.1694 56.2512 51.0942 56.251L45.0357 56.2404C44.9985 56.2403 44.9616 56.2476 44.9272 56.2618C44.8928 56.276 44.8615 56.2968 44.8351 56.3231C44.8087 56.3494 44.7878 56.3806 44.7735 56.415C44.7592 56.4494 44.7518 56.4862 44.7517 56.5234L44.7412 62.5504C44.7411 62.6256 44.7708 62.6978 44.8239 62.751C44.877 62.8043 44.949 62.8343 45.0242 62.8344L51.0827 62.845C51.1199 62.8451 51.1568 62.8378 51.1912 62.8236C51.2256 62.8095 51.2569 62.7886 51.2833 62.7623C51.3097 62.7361 51.3306 62.7048 51.3449 62.6705C51.3592 62.6361 51.3666 62.5992 51.3667 62.562L51.3772 56.535Z" fill="#04CEDB"/>
<path id="Vector_12" d="M61.2219 56.6861L61.2062 62.4664C61.2027 62.6974 61.3164 62.8199 61.5474 62.8339L62.4137 62.8864C62.6972 62.9039 62.8372 63.0544 62.8337 63.3379L62.8127 65.6899C62.8127 65.9874 62.6622 66.1344 62.3612 66.1309L59.2794 66.1204C58.9281 66.119 58.5916 65.9784 58.3436 65.7295C58.0956 65.4805 57.9564 65.1435 57.9564 64.7921L57.9512 54.5966C57.9512 53.5361 58.4814 53.0059 59.5419 53.0059L69.6797 53.0111C70.0292 53.0111 70.3643 53.1494 70.6115 53.3955C70.8586 53.6417 70.9974 53.9755 70.9974 54.3236V62.5661C70.9974 62.7446 70.9082 62.8339 70.7297 62.8339L67.9577 62.8181C67.8002 62.8181 67.7214 62.7376 67.7214 62.5766L67.7897 56.5706C67.7904 56.5281 67.7825 56.4859 67.7664 56.4465C67.7504 56.407 67.7265 56.3711 67.6962 56.3408C67.6659 56.3105 67.6298 56.2864 67.59 56.27C67.5501 56.2536 67.5074 56.2451 67.4642 56.2451L61.6524 56.2556C61.3689 56.2556 61.2254 56.3991 61.2219 56.6861Z" fill="#04CEDB"/>
<path id="Vector_13" d="M87.4683 64.6189C87.4679 64.8174 87.4285 65.014 87.3522 65.1973C87.2759 65.3806 87.1642 65.5471 87.0236 65.6872C86.8829 65.8274 86.716 65.9385 86.5325 66.0141C86.3489 66.0898 86.1522 66.1286 85.9536 66.1282L75.8316 66.1106C75.6331 66.1102 75.4365 66.0708 75.2532 65.9945C75.0699 65.9182 74.9034 65.8065 74.7632 65.6659C74.6231 65.5252 74.512 65.3583 74.4363 65.1748C74.3607 64.9912 74.3219 64.7945 74.3223 64.5959L74.3399 54.5055C74.3403 54.3069 74.3797 54.1104 74.456 53.9271C74.5323 53.7437 74.644 53.5773 74.7846 53.4371C74.9253 53.2969 75.0921 53.1858 75.2757 53.1102C75.4593 53.0345 75.656 52.9958 75.8545 52.9961L85.9765 53.0137C86.1751 53.0141 86.3716 53.0535 86.555 53.1298C86.7383 53.2061 86.9048 53.3178 87.0449 53.4585C87.1851 53.5991 87.2962 53.766 87.3718 53.9496C87.4475 54.1332 87.4863 54.3299 87.4859 54.5284L87.4683 64.6189ZM84.1908 56.4284C84.1908 56.4043 84.1861 56.3804 84.1769 56.3581C84.1678 56.3358 84.1543 56.3155 84.1372 56.2984C84.1202 56.2813 84.0999 56.2677 84.0777 56.2584C84.0554 56.2492 84.0315 56.2444 84.0074 56.2443L77.7914 56.2335C77.7672 56.2335 77.7433 56.2382 77.721 56.2474C77.6987 56.2566 77.6784 56.2701 77.6613 56.2871C77.6442 56.3041 77.6307 56.3244 77.6214 56.3466C77.6121 56.3689 77.6073 56.3928 77.6073 56.4169L77.5964 62.6539C77.5963 62.678 77.601 62.7019 77.6102 62.7242C77.6194 62.7466 77.6329 62.7668 77.65 62.7839C77.667 62.801 77.6872 62.8146 77.7095 62.8239C77.7318 62.8332 77.7557 62.838 77.7798 62.838L83.9958 62.8488C84.0199 62.8489 84.0438 62.8442 84.0662 62.835C84.0885 62.8258 84.1087 62.8123 84.1258 62.7952C84.1429 62.7782 84.1565 62.758 84.1658 62.7357C84.175 62.7134 84.1798 62.6895 84.1799 62.6654L84.1908 56.4284Z" fill="#04CEDB"/>
<path id="Vector_14" d="M21.78 81.1939C21.7797 81.3684 21.745 81.541 21.678 81.7021C21.6109 81.8631 21.5129 82.0093 21.3893 82.1325C21.2657 82.2556 21.1191 82.3532 20.9579 82.4197C20.7966 82.4861 20.6238 82.5202 20.4494 82.5199L10.0545 82.5017C9.88003 82.5014 9.70737 82.4667 9.54633 82.3997C9.3853 82.3327 9.23904 82.2346 9.11592 82.111C8.99279 81.9875 8.89521 81.8409 8.82874 81.6796C8.76227 81.5184 8.72821 81.3456 8.72852 81.1711L8.74674 70.7341C8.74704 70.5597 8.78169 70.3871 8.84873 70.226C8.91576 70.065 9.01385 69.9187 9.1374 69.7956C9.26096 69.6725 9.40755 69.5749 9.56882 69.5084C9.73009 69.442 9.90287 69.4079 10.0773 69.4082L20.4722 69.4264C20.6467 69.4267 20.8193 69.4613 20.9804 69.5284C21.1414 69.5954 21.2877 69.6935 21.4108 69.817C21.5339 69.9406 21.6315 70.0872 21.698 70.2485C21.7644 70.4097 21.7985 70.5825 21.7982 70.7569L21.78 81.1939ZM18.5446 72.8665C18.5446 72.8178 18.5252 72.7711 18.4908 72.7366C18.4563 72.7021 18.4096 72.6828 18.3609 72.6828H12.1658C12.1171 72.6828 12.0704 72.7021 12.0359 72.7366C12.0015 72.7711 11.9821 72.8178 11.9821 72.8665V79.072C11.9821 79.1208 12.0015 79.1675 12.0359 79.202C12.0704 79.2364 12.1171 79.2558 12.1658 79.2558H18.3609C18.4096 79.2558 18.4563 79.2364 18.4908 79.202C18.5252 79.1675 18.5446 79.1208 18.5446 79.072V72.8665Z" fill="#04CEDB"/>
<path id="Vector_15" d="M38.2231 81.1151C38.2228 81.2999 38.1861 81.4828 38.1151 81.6534C38.0441 81.824 37.9402 81.9789 37.8093 82.1093C37.6784 82.2397 37.5231 82.3431 37.3523 82.4135C37.1815 82.4839 36.9984 82.52 36.8137 82.5197L26.5237 82.5017C26.339 82.5014 26.1561 82.4647 25.9855 82.3937C25.8149 82.3227 25.6599 82.2188 25.5295 82.0879C25.3991 81.957 25.2957 81.8017 25.2253 81.6309C25.1549 81.46 25.1188 81.277 25.1191 81.0922L25.1371 70.8127C25.1374 70.628 25.1741 70.4451 25.2451 70.2745C25.3162 70.1039 25.4201 69.949 25.5509 69.8186C25.6818 69.6881 25.8371 69.5848 26.0079 69.5144C26.1788 69.444 26.3618 69.4079 26.5466 69.4082L36.8365 69.4262C37.0213 69.4265 37.2042 69.4632 37.3748 69.5342C37.5454 69.6052 37.7003 69.7091 37.8307 69.84C37.9612 69.9709 38.0645 70.1262 38.1349 70.297C38.2053 70.4678 38.2414 70.6509 38.2411 70.8356L38.2231 81.1151ZM34.9929 72.9189C34.9929 72.8563 34.968 72.7962 34.9237 72.7519C34.8794 72.7076 34.8193 72.6827 34.7566 72.6827H28.6036C28.541 72.6827 28.4809 72.7076 28.4366 72.7519C28.3923 72.7962 28.3674 72.8563 28.3674 72.9189V79.0194C28.3674 79.0821 28.3923 79.1422 28.4366 79.1865C28.4809 79.2308 28.541 79.2557 28.6036 79.2557H34.7566C34.8193 79.2557 34.8794 79.2308 34.9237 79.1865C34.968 79.1422 34.9929 79.0821 34.9929 79.0194V72.9189Z" fill="#04CEDB"/>
<path id="Vector_16" d="M54.602 81.0993C54.6013 81.4767 54.4508 81.8383 54.1835 82.1046C53.9162 82.3709 53.5541 82.5202 53.1768 82.5196L42.9183 82.5017C42.7315 82.5013 42.5465 82.4642 42.3741 82.3924C42.2016 82.3206 42.0449 82.2155 41.913 82.0832C41.7811 81.9509 41.6766 81.7938 41.6054 81.6211C41.5342 81.4483 41.4977 81.2633 41.498 81.0764L41.5159 70.8284C41.5166 70.4511 41.6671 70.0895 41.9344 69.8232C42.2017 69.5568 42.5638 69.4076 42.9412 69.4082L53.1996 69.4261C53.3865 69.4264 53.5714 69.4635 53.7439 69.5353C53.9164 69.6071 54.073 69.7122 54.2049 69.8446C54.3368 69.9769 54.4413 70.1339 54.5125 70.3067C54.5837 70.4794 54.6202 70.6645 54.6199 70.8513L54.602 81.0993ZM51.3665 72.9031C51.3665 72.8433 51.3427 72.7858 51.3004 72.7435C51.258 72.7012 51.2006 72.6774 51.1407 72.6774H44.9772C44.9174 72.6774 44.8599 72.7012 44.8176 72.7435C44.7753 72.7858 44.7515 72.8433 44.7515 72.9031V79.0351C44.7515 79.095 44.7753 79.1524 44.8176 79.1948C44.8599 79.2371 44.9174 79.2609 44.9772 79.2609H51.1407C51.2006 79.2609 51.258 79.2371 51.3004 79.1948C51.3427 79.1524 51.3665 79.095 51.3665 79.0351V72.9031Z" fill="#04CEDB"/>
<path id="Vector_17" d="M96.9692 76.5521L84.6369 82.1539C84.6047 82.1683 84.5688 82.1725 84.534 82.1659C84.4993 82.1593 84.4674 82.1423 84.4427 82.1171L72.0632 69.7691C72.0366 69.742 72.0197 69.7069 72.015 69.6693C72.0103 69.6317 72.0181 69.5935 72.0372 69.5607C72.0562 69.5279 72.0856 69.5023 72.1206 69.4878C72.1556 69.4733 72.1945 69.4707 72.2312 69.4804L96.9429 76.2266C96.9775 76.2358 97.0084 76.2555 97.0313 76.283C97.0543 76.3105 97.0681 76.3444 97.071 76.3801C97.0739 76.4158 97.0656 76.4515 97.0474 76.4823C97.0292 76.5131 97.0018 76.5375 96.9692 76.5521Z" fill="#CFFAFE"/>
<path id="Vector_18" d="M69.7477 72.0527L82.1167 84.4584C82.1401 84.4821 82.1557 84.5125 82.1613 84.5453C82.167 84.5782 82.1624 84.612 82.1482 84.6422L76.5464 96.9692C76.5323 96.9994 76.5093 97.0245 76.4804 97.0412C76.4515 97.0579 76.4182 97.0653 76.385 97.0624C76.3518 97.0596 76.3203 97.0466 76.2947 97.0252C76.2691 97.0038 76.2507 96.9751 76.2419 96.9429L69.4747 72.2102C69.465 72.1754 69.4672 72.1384 69.4809 72.105C69.4945 72.0716 69.5189 72.0437 69.5502 72.0257C69.5814 72.0076 69.6178 72.0005 69.6535 72.0054C69.6893 72.0103 69.7224 72.0269 69.7477 72.0527Z" fill="#CFFAFE"/>
</g>
</svg>
