<svg width="34" height="34" viewBox="0 0 34 34" fill="none" xmlns="http://www.w3.org/2000/svg">
<rect x="0.5" y="0.5" width="33" height="33" rx="16.5" fill="#F1FEFF"/>
<rect x="0.5" y="0.5" width="33" height="33" rx="16.5" stroke="#04CEDB"/>
<g clip-path="url(#clip0_6_245)">
<path d="M3 3H31V31H3V3Z" fill="#EE1C25"/>
<path d="M3 3H31V21.6648H3V3Z" fill="#0B4EA2"/>
<path d="M3 3H31V12.3352H3V3Z" fill="white"/>
<path d="M14.1125 24.6289C11.6023 23.4258 8.01483 21.0195 8.01483 16.2727C8.01483 11.5258 8.23905 9.37109 8.23905 9.37109H19.9859C19.9859 9.37109 20.2156 11.5258 20.2156 16.2727C20.2156 21.0195 16.6172 23.4203 14.1125 24.6289Z" fill="white"/>
<path d="M14.1125 24C11.8102 22.8898 8.51797 20.6914 8.51797 16.3328C8.51797 11.9742 8.72579 10 8.72579 10H19.4992C19.4992 10 19.707 11.9797 19.707 16.3328C19.707 20.6859 16.4148 22.8953 14.1125 24Z" fill="#EE1C25"/>
<path d="M14.6047 15.1953C15.2281 15.2063 16.4476 15.2281 17.5305 14.8672C17.5305 14.8672 17.4976 15.25 17.4976 15.7039C17.4976 16.1578 17.5305 16.5406 17.5305 16.5406C16.5785 16.2784 15.5911 16.1676 14.6047 16.2125V18.6188H13.6203V16.2125C12.6339 16.1676 11.6465 16.2784 10.6945 16.5406C10.6945 16.5406 10.7273 16.1578 10.7273 15.7039C10.7273 15.25 10.6945 14.8672 10.6945 14.8672C11.7828 15.2281 12.9969 15.2063 13.6203 15.1953V13.6805C12.836 13.6613 12.054 13.774 11.307 14.0141C11.307 14.0141 11.3344 13.6313 11.3344 13.1774C11.3344 12.7235 11.307 12.3352 11.307 12.3352C12.2367 12.6469 13.0516 12.6742 13.6148 12.6633C13.5875 11.7117 13.3086 10.5086 13.3086 10.5086C13.3086 10.5086 13.8828 10.5524 14.1125 10.5524C14.3422 10.5524 14.9164 10.5086 14.9164 10.5086C14.9164 10.5086 14.6375 11.7117 14.6047 12.6688C15.3888 12.6919 16.1712 12.5809 16.918 12.3406C16.918 12.3406 16.8906 12.7235 16.8906 13.1774C16.8906 13.6313 16.918 14.0141 16.918 14.0141C15.9883 13.7024 15.1734 13.6805 14.6047 13.686V15.1953Z" fill="white"/>
<path d="M14.1125 18.3563C12.9531 18.3563 12.3297 19.9641 12.3297 19.9641C12.3297 19.9641 11.9851 19.1985 11.0391 19.1985C10.3992 19.1985 9.92889 19.7727 9.62811 20.3031C10.793 22.1516 12.6523 23.2945 14.1125 24C15.5726 23.2945 17.432 22.1516 18.5969 20.2977C18.2961 19.7727 17.8258 19.2039 17.1859 19.2039C16.2398 19.2039 15.8953 19.9695 15.8953 19.9695C15.8953 19.9695 15.2719 18.3563 14.1125 18.3563Z" fill="#0B4EA2"/>
</g>
<defs>
<clipPath id="clip0_6_245">
<rect x="3" y="3" width="28" height="28" rx="14" fill="white"/>
</clipPath>
</defs>
</svg>
